{"title":"WWE.Friday.Night.Smackdown.2011.10.21.1080p.H.264.HD.Mp4.MM.Snaw","uid":6765418,"size":7511019844,"categoryP":"video","categoryS":"hd___tv_shows","magnet":"?xt=urn:btih:d0fa9d3d204eab1e5ee569e8f120f3e3bb55b093&amp;dn=WWE.Friday.Night.Smackdown.2011.10.21.1080p.H.264.HD.Mp4.MM.Snaw&amp;tr=udp%3A%2F%2Ftracker.openbittorrent.com%3A80&amp;tr=udp%3A%2F%2Fopen.demonii.com%3A1337&amp;tr=udp%3A%2F%2Ftracker.coppersurfer.tk%3A6969&amp;tr=udp%3A%2F%2Fexodus.desync.com%3A6969","seeders":0,"leechers":1,"uploader":"snaw90","files":1,"time":1319366219,"description":"General\nComplete name                      : WWE.Friday.Night.Smackdown.2011.10.21.1080p.H.264.HD.Mp4.MM.Snaw90\nFormat                                  : MPEG-4\nFile size                                : 7.00 GiB\nDuration                                : 1h 22mn\n\n\nVideo\nID                                         : 1\nFormat                                   : AVC\nDuration                                 : 1h 22mn\nWidth                                    : 1920 pixels\nHeight                                   : 1080 pixels\nChroma subsampling                : 4:2:0\nStream size                            : 6.90 GiB (99%)\n\n\nAudio\nID                                         : 2\nFormat                                   : AAC\nBit rate                                  : 152 Kbps\nChannel(s)                             : 2 channels\nStream size                            : 89.4 MiB (1%)","torrent":{"xt":"urn:btih:d0fa9d3d204eab1e5ee569e8f120f3e3bb55b093","amp;dn":"WWE.Friday.Night.Smackdown.2011.10.21.1080p.H.264.HD.Mp4.MM.Snaw","amp;tr":["udp%3A%2F%2Ftracker.openbittorrent.com%3A80","udp%3A%2F%2Fopen.demonii.com%3A1337","udp%3A%2F%2Ftracker.coppersurfer.tk%3A6969","udp%3A%2F%2Fexodus.desync.com%3A6969"],"infoHash":"d0fa9d3d204eab1e5ee569e8f120f3e3bb55b093","infoHashBuffer":{"type":"Buffer","data":[208,250,157,61,32,78,171,30,94,229,105,232,241,32,243,227,187,85,176,147]},"announce":[],"urlList":[]}}